<svg xmlns="http://www.w3.org/2000/svg" viewBox="0 0 512 512" width="512" height="512">
  <defs>
    <linearGradient id="bgGradient" x1="0%" y1="0%" x2="100%" y2="100%">
      <stop offset="0%" stop-color="#6750A4" />
      <stop offset="100%" stop-color="#381E72" />
    </linearGradient>
    <linearGradient id="checkGradient" x1="0%" y1="0%" x2="100%" y2="100%">
      <stop offset="0%" stop-color="#34A853" />
      <stop offset="100%" stop-color="#188038" />
    </linearGradient>
    <filter id="softShadow" x="-10%" y="-10%" width="130%" height="130%">
      <feDropShadow dx="0" dy="8" stdDeviation="12" flood-color="#000000" flood-opacity="0.25" />
    </filter>
    <filter id="heavyShadow" x="-20%" y="-20%" width="140%" height="140%">
      <feDropShadow dx="4" dy="16" stdDeviation="16" flood-color="#000000" flood-opacity="0.35" />
    </filter>
  </defs>
  <rect x="16" y="16" width="480" height="480" fill="url(#bgGradient)" />
  <rect x="136" y="96" width="240" height="320" rx="28" fill="#D0BCFF" opacity="0.3" transform="rotate(-15 256 256)" />
  <rect x="136" y="96" width="240" height="320" rx="28" fill="#EADDFF" opacity="0.6" transform="rotate(-7 256 256)" />
  <rect x="136" y="96" width="240" height="320" rx="28" fill="#FEF7FF" filter="url(#softShadow)" />
  <g transform="translate(0, -10)">
    <circle cx="180" cy="166" r="14" fill="none" stroke="#CAC4D0" stroke-width="5" />
    <rect x="216" y="156" width="100" height="20" rx="10" fill="#E6E0E9" />
    <circle cx="180" cy="246" r="15" fill="#6750A4" />
    <circle cx="180" cy="246" r="5" fill="#FFFFFF" />
    <rect x="216" y="236" width="120" height="20" rx="10" fill="#6750A4" />
    <circle cx="180" cy="326" r="14" fill="none" stroke="#CAC4D0" stroke-width="5" />
    <rect x="216" y="316" width="70" height="20" rx="10" fill="#E6E0E9" />
  </g>
  <g>
    <circle cx="376" cy="376" r="56" fill="url(#checkGradient)" filter="url(#heavyShadow)" />
    <path d="M 346 376 L 366 396 L 406 348" fill="none" stroke="#FFFFFF" stroke-width="14" stroke-linecap="round" stroke-linejoin="round" />
  </g>
</svg>